<?xml version="1.0" encoding="utf-8"?>
<svg xmlns="http://www.w3.org/2000/svg" style="margin: auto; background: none; display: block; shape-rendering: auto;" width="280" height="105" preserveAspectRatio="xMidYMid">
<style type="text/css">
  text {
    text-anchor: middle; font-size: 69px; opacity: 0;
  }
</style>
<g style="transform-origin: 140px 52.5px; transform: scale(0.75);">
<g transform="translate(140,52.5)">
  <g transform="translate(0,0)"><g class="path" style="opacity: 1; transform-origin: -158.52px -6.41245px; animation: 2.27273s linear -1.33333s infinite normal forwards running fade-3534dd99-4715-4b04-bf22-70ac0b70b21b;"><path d="M23.64-38.55L23.64-38.55L23.64-38.55Q24.01-38.55 25.02-37.81L25.02-37.81L25.02-37.81Q26.04-37.08 27.14-37.08L27.14-37.08L27.23-37.08L27.23-37.08Q30.36-37.08 32.20-39.56L32.20-39.56L32.20-39.56Q34.04-42.04 34.22-44.53L34.22-44.53L34.50-47.01L34.50-47.01Q34.50-50.51 33.44-53.04L33.44-53.04L33.44-53.04Q32.38-55.57 31.00-56.81L31.00-56.81L31.00-56.81Q29.62-58.05 27.78-58.70L27.78-58.70L27.78-58.70Q25.48-59.62 22.95-59.62L22.95-59.62L22.95-59.62Q20.42-59.62 18.86-59.11L18.86-59.11L18.86-59.11Q17.30-58.60 17.11-58.14L17.11-58.14L17.02-57.59L17.02-57.59Q16.19-45.17 16.19-35.37L16.19-35.37L16.19-35.37Q16.19-25.58 16.51-18.49L16.51-18.49L16.51-18.49Q16.84-11.41 17.16-7.59L17.16-7.59L17.16-7.59Q17.48-3.77 17.48-3.40L17.48-3.40L17.48-3.40Q17.48-1.10 13.43 0.28L13.43 0.28L13.43 0.28Q9.38 1.66 5.43 1.66L5.43 1.66L5.43 1.66Q3.59 1.66 3.59 0.74L3.59 0.74L3.59 0.74Q3.59 0.46 3.86-0.55L3.86-0.55L3.86-0.55Q5.61-4.60 5.61-38.18L5.61-38.18L5.61-38.18Q5.61-57.96 2.94-60.81L2.94-60.81L2.94-60.81Q2.39-61.36 2.39-61.96L2.39-61.96L2.39-61.96Q2.39-62.56 3.73-63.30L3.73-63.30L3.73-63.30Q5.06-64.03 11.22-65.00L11.22-65.00L11.22-65.00Q17.39-65.96 24.29-65.96L24.29-65.96L24.29-65.96Q35.14-65.96 40.62-60.08L40.62-60.08L40.62-60.08Q46.09-54.19 46.09-46.05L46.09-46.05L46.09-46.05Q46.09-37.90 41.63-31.92L41.63-31.92L41.63-31.92Q37.17-25.94 29.99-25.94L29.99-25.94L29.99-25.94Q27.69-25.94 25.39-26.77L25.39-26.77L25.39-26.77Q20.79-28.43 20.79-33.67L20.79-33.67L20.79-33.67Q20.79-34.78 21.53-36.66L21.53-36.66L21.53-36.66Q22.26-38.55 23.64-38.55" fill="#b4b2ae" stroke="none" stroke-width="none" transform="translate(-182.759991645813,25.73755315992567)" style="fill: rgb(180, 178, 174);"></path></g><g class="path" style="opacity: 1; transform-origin: -112.52px -6.36745px; animation: 2.27273s linear -1.16667s infinite normal forwards running fade-3534dd99-4715-4b04-bf22-70ac0b70b21b;"><path d="M63.76-40.76L63.76-40.76L63.76-39.47L80.04-39.47L80.04-39.65L80.04-39.65Q80.13-41.86 80.13-45.22L80.13-45.22L80.13-45.22Q80.13-48.58 80.04-51.11L80.04-51.11L80.04-51.11Q79.95-53.64 79.86-55.38L79.86-55.38L79.86-55.38Q79.76-57.13 79.63-58.42L79.63-58.42L79.63-58.42Q79.49-59.71 79.40-60.40L79.40-60.40L79.40-60.40Q79.30-61.09 79.30-61.64L79.30-61.64L79.30-61.64Q79.30-62.19 80.32-62.93L80.32-62.93L80.32-62.93Q84.73-65.87 90.16-65.87L90.16-65.87L90.16-65.87Q93.56-65.87 93.56-64.68L93.56-64.68L93.56-64.68Q93.56-64.58 93.38-63.66L93.38-63.66L93.38-63.66Q91.63-54.92 91.17-39.47L91.17-39.47L91.17-39.47Q90.90-24.01 90.90-22.91L90.90-22.91L90.90-22.91Q90.90-8.65 92.55-3.13L92.55-3.13L92.55-3.13Q92.83-2.39 92.83-1.89L92.83-1.89L92.83-1.89Q92.83-1.38 92.09-0.74L92.09-0.74L92.09-0.74Q88.69 1.47 83.26 1.47L83.26 1.47L83.26 1.47Q79.76 1.47 79.30-0.92L79.30-0.92L79.30-0.92Q79.03-2.21 79.03-4.92L79.03-4.92L79.03-4.92Q79.03-7.64 79.35-13.25L79.35-13.25L79.35-13.25Q79.67-18.86 79.86-32.84L79.86-32.84L63.76-32.84L63.76-32.84Q63.76-11.87 65.04-3.40L65.04-3.40L65.04-3.40Q65.04-1.20 60.81 0.23L60.81 0.23L60.81 0.23Q56.58 1.66 53.82 1.66L53.82 1.66L53.82 1.66Q51.06 1.66 51.06 0.83L51.06 0.83L51.06 0.83Q51.06 0.28 51.34-0.55L51.34-0.55L51.34-0.55Q53.08-4.42 53.08-31.65L53.08-31.65L53.08-32.84L47.66-32.84L47.66-32.84Q46.92-32.84 46.92-33.40L46.92-33.40L46.92-33.40Q46.92-33.58 47.29-34.82L47.29-34.82L47.29-34.82Q47.66-36.06 48.99-37.72L48.99-37.72L48.99-37.72Q50.32-39.38 51.98-39.38L51.98-39.38L52.99-39.38L52.99-39.38Q52.99-57.50 50.88-60.26L50.88-60.26L50.51-60.81L50.51-60.81Q49.96-61.27 49.96-61.96L49.96-61.96L49.96-61.96Q49.96-62.65 50.97-63.11L50.97-63.11L50.97-63.11Q52.35-63.94 55.89-64.77L55.89-64.77L55.89-64.77Q59.43-65.60 62.28-65.60L62.28-65.60L62.28-65.60Q65.14-65.60 65.14-64.31L65.14-64.31L65.14-64.03L65.14-64.03Q64.03-54.46 63.76-40.76" fill="#b4b2ae" stroke="none" stroke-width="none" transform="translate(-182.759991645813,25.73755315992567)" style="fill: rgb(5, 105, 107);"></path></g><g class="path" style="opacity: 1; transform-origin: -63.07px -6.18568px; animation: 2.27273s linear -1s infinite normal forwards running fade-3534dd99-4715-4b04-bf22-70ac0b70b21b;"><path d="M138.55-21.07L138.55-21.07L138.55-21.07Q140.30-21.07 140.30-16.65L140.30-16.65L140.30-16.65Q140.30-12.24 138.64-8.74L138.64-8.74L138.64-8.74Q136.99-5.24 134.64-3.31L134.64-3.31L134.64-3.31Q132.30-1.38 129.35-0.18L129.35-0.18L129.35-0.18Q119.51 4.14 110.95-0.37L110.95-0.37L110.95-0.37Q106.63-2.67 104.33-5.84L104.33-5.84L104.33-5.84Q102.03-9.02 100.65-13.43L100.65-13.43L100.65-13.43Q98.53-20.06 98.53-27.32L98.53-27.32L98.53-27.32Q98.53-34.59 99.91-40.94L99.91-40.94L99.91-40.94Q101.29-47.29 104.14-53.04L104.14-53.04L104.14-53.04Q107.00-58.79 112.24-62.28L112.24-62.28L112.24-62.28Q117.48-65.78 124.38-65.78L124.38-65.78L124.38-65.78Q127.33-65.78 130.50-64.81L130.50-64.81L130.50-64.81Q133.68-63.85 135.70-62.42L135.70-62.42L135.70-62.42Q137.72-61.00 139.29-58.05L139.29-58.05L139.29-58.05Q140.85-55.11 140.85-51.15L140.85-51.15L140.85-51.15Q140.85-46.92 138.83-43.52L138.83-43.52L138.83-43.52Q137.91-41.95 135.88-40.71L135.88-40.71L135.88-40.71Q133.86-39.47 131.10-39.47L131.10-39.47L131.10-39.47Q126.87-39.47 125.12-43.24L125.12-43.24L125.12-43.24Q124.38-44.71 124.38-46.46L124.38-46.46L124.38-46.46Q124.38-48.21 125.58-48.48L125.58-48.48L125.58-48.48Q126.87-48.85 127.97-50.51L127.97-50.51L127.97-50.51Q129.08-52.16 129.08-54.37L129.08-54.37L129.08-54.37Q129.08-56.12 128.16-57.41L128.16-57.41L128.16-57.41Q126.41-59.71 123.10-59.71L123.10-59.71L123.10-59.71Q119.78-59.71 117.07-56.67L117.07-56.67L117.07-56.67Q114.36-53.64 112.98-49.04L112.98-49.04L112.98-49.04Q110.22-39.84 110.22-32.11L110.22-32.11L110.22-32.11Q110.22-24.38 112.33-19.69L112.33-19.69L112.33-19.69Q114.91-13.89 118.86-11.96L118.86-11.96L118.86-11.96Q121.35-10.76 124.57-10.76L124.57-10.76L124.57-10.76Q130.00-10.76 134.32-15.64L134.32-15.64L134.32-15.64Q136.16-17.57 137.36-20.24L137.36-20.24L137.36-20.24Q137.82-21.07 138.55-21.07" fill="#b4b2ae" stroke="none" stroke-width="none" transform="translate(-182.759991645813,25.73755315992567)" style="fill: rgb(180, 178, 174);"></path></g><g class="path" style="opacity: 1; transform-origin: 0.640007px -6.41245px; animation: 2.27273s linear -0.833333s infinite normal forwards running fade-3534dd99-4715-4b04-bf22-70ac0b70b21b;"><path d="M182.80-38.55L182.80-38.55L182.80-38.55Q183.17-38.55 184.18-37.81L184.18-37.81L184.18-37.81Q185.20-37.08 186.30-37.08L186.30-37.08L186.39-37.08L186.39-37.08Q189.52-37.08 191.36-39.56L191.36-39.56L191.36-39.56Q193.20-42.04 193.38-44.53L193.38-44.53L193.66-47.01L193.66-47.01Q193.66-50.51 192.60-53.04L192.60-53.04L192.60-53.04Q191.54-55.57 190.16-56.81L190.16-56.81L190.16-56.81Q188.78-58.05 186.94-58.70L186.94-58.70L186.94-58.70Q184.64-59.62 182.11-59.62L182.11-59.62L182.11-59.62Q179.58-59.62 178.02-59.11L178.02-59.11L178.02-59.11Q176.46-58.60 176.27-58.14L176.27-58.14L176.18-57.59L176.18-57.59Q175.35-45.17 175.35-35.37L175.35-35.37L175.35-35.37Q175.35-25.58 175.67-18.49L175.67-18.49L175.67-18.49Q176.00-11.41 176.32-7.59L176.32-7.59L176.32-7.59Q176.64-3.77 176.64-3.40L176.64-3.40L176.64-3.40Q176.64-1.10 172.59 0.28L172.59 0.28L172.59 0.28Q168.54 1.66 164.59 1.66L164.59 1.66L164.59 1.66Q162.75 1.66 162.75 0.74L162.75 0.74L162.75 0.74Q162.75 0.46 163.02-0.55L163.02-0.55L163.02-0.55Q164.77-4.60 164.77-38.18L164.77-38.18L164.77-38.18Q164.77-57.96 162.10-60.81L162.10-60.81L162.10-60.81Q161.55-61.36 161.55-61.96L161.55-61.96L161.55-61.96Q161.55-62.56 162.89-63.30L162.89-63.30L162.89-63.30Q164.22-64.03 170.38-65.00L170.38-65.00L170.38-65.00Q176.55-65.96 183.45-65.96L183.45-65.96L183.45-65.96Q194.30-65.96 199.78-60.08L199.78-60.08L199.78-60.08Q205.25-54.19 205.25-46.05L205.25-46.05L205.25-46.05Q205.25-37.90 200.79-31.92L200.79-31.92L200.79-31.92Q196.33-25.94 189.15-25.94L189.15-25.94L189.15-25.94Q186.85-25.94 184.55-26.77L184.55-26.77L184.55-26.77Q179.95-28.43 179.95-33.67L179.95-33.67L179.95-33.67Q179.95-34.78 180.69-36.66L180.69-36.66L180.69-36.66Q181.42-38.55 182.80-38.55" fill="#b4b2ae" stroke="none" stroke-width="none" transform="translate(-182.759991645813,25.73755315992567)" style="fill: rgb(5, 105, 107);"></path></g><g class="path" style="opacity: 1; transform-origin: 37.215px 5.54755px; animation: 2.27273s linear -0.666667s infinite normal forwards running fade-3534dd99-4715-4b04-bf22-70ac0b70b21b;"><path d="M234.78-27.60L234.78-27.60L234.60-15.82L234.60-15.82Q234.60-3.59 237.27-1.10L237.27-1.10L237.27-1.10Q237.64-0.74 237.64-0.28L237.64-0.28L237.64-0.28Q237.64 1.10 231.70 1.10L231.70 1.10L231.70 1.10Q225.77 1.10 225.40-2.39L225.40-2.39L225.40-2.39Q225.31-3.22 225.31-5.80L225.31-5.80L225.68-20.52L225.68-20.52Q225.68-21.16 224.94-21.16L224.94-21.16L224.94-21.16Q220.52-21.16 216.66-18.68L216.66-18.68L216.66-18.68Q212.80-16.19 212.80-12.33L212.80-12.33L212.80-12.33Q212.80-10.30 213.90-8.92L213.90-8.92L213.90-8.92Q215.00-7.54 216.61-7.54L216.61-7.54L216.61-7.54Q218.22-7.54 219.28-8.19L219.28-8.19L219.28-8.19Q220.34-8.83 220.52-8.92L220.52-8.92L220.52-8.92Q222.09-8.74 222.09-5.66L222.09-5.66L222.09-5.66Q222.09-2.58 219.24-0.69L219.24-0.69L219.24-0.69Q216.38 1.20 213.26 1.20L213.26 1.20L213.26 1.20Q210.13 1.20 207.87 0.09L207.87 0.09L207.87 0.09Q205.62-1.01 204.61-2.39L204.61-2.39L204.61-2.39Q203.60-3.77 202.95-5.52L202.95-5.52L202.95-5.52Q202.31-7.64 202.31-9.20L202.31-9.20L202.31-9.20Q202.31-15.64 206.36-19.50L206.36-19.50L206.36-19.50Q210.40-23.37 216.75-25.02L216.75-25.02L216.75-25.02Q225.12-26.68 225.49-28.06L225.49-28.06L225.49-28.06Q225.77-29.07 225.77-31.46L225.77-31.46L225.77-31.46Q225.77-36.34 220.80-36.34L220.80-36.34L220.80-36.34Q218.68-36.34 217.03-35.01L217.03-35.01L217.03-35.01Q215.37-33.67 215.37-31.65L215.37-31.65L215.92-29.44L215.92-29.44Q215.74-27.88 212.61-27.60L212.61-27.60L211.60-27.51L211.60-27.51Q208.84-27.51 207.23-28.89L207.23-28.89L207.23-28.89Q205.62-30.27 205.62-32.57L205.62-32.57L205.62-32.57Q205.62-34.04 206.59-35.83L206.59-35.83L206.59-35.83Q207.55-37.63 209.02-38.73L209.02-38.73L209.02-38.73Q210.50-39.84 213.58-40.71L213.58-40.71L213.58-40.71Q216.66-41.58 219.51-41.58L219.51-41.58L219.51-41.58Q222.36-41.58 223.93-41.40L223.93-41.40L223.93-41.40Q225.49-41.22 228.21-40.53L228.21-40.53L228.21-40.53Q230.92-39.84 232.71-37.90L232.71-37.90L232.71-37.90Q234.51-35.97 234.65-33.81L234.65-33.81L234.65-33.81Q234.78-31.65 234.78-27.60" fill="#b4b2ae" stroke="none" stroke-width="none" transform="translate(-182.759991645813,25.73755315992567)" style="fill: rgb(180, 178, 174);"></path></g><g class="path" style="opacity: 1; transform-origin: 71.99px 6.18755px; animation: 2.27273s linear -0.5s infinite normal forwards running fade-3534dd99-4715-4b04-bf22-70ac0b70b21b;"><path d="M261.14-39.74L261.14-39.74L261.14-39.74Q265.05-41.68 268.92-41.68L268.92-41.68L268.92-41.68Q272.78-41.68 272.78-33.67L272.78-33.67L272.78-33.67Q272.78-27.78 270.62-21.71L270.62-21.71L270.62-21.71Q268.46-15.64 265.24-11.04L265.24-11.04L265.24-11.04Q258.61-1.38 253.28 1.84L253.28 1.84L253.28 1.84Q251.99 2.58 251.34 2.58L251.34 2.58L251.34 2.58Q250.70 2.58 250.01 1.20L250.01 1.20L250.01 1.20Q249.32-0.18 247.89-4.88L247.89-4.88L247.89-4.88Q246.47-9.57 245.55-13.25L245.55-13.25L244.72-17.02L244.72-17.02Q242.88-25.12 241.13-29.95L241.13-29.95L241.13-29.95Q239.38-34.78 238.56-35.51L238.56-35.51L237.64-36.34L237.64-36.34Q236.72-36.80 236.72-37.44L236.72-37.44L237.18-38.27L237.18-38.27Q238.37-39.38 241.18-40.53L241.18-40.53L241.18-40.53Q243.98-41.68 247.39-41.68L247.39-41.68L247.39-41.68Q248.95-41.68 249.32-39.93L249.32-39.93L249.32-39.93Q250.70-35.70 251.71-29.99L251.71-29.99L251.71-29.99Q252.72-24.29 254.43-17.11L254.43-17.11L254.43-17.11Q256.13-9.94 257.23-9.84L257.23-9.84L257.23-9.84Q257.78-9.84 258.47-10.67L258.47-10.67L258.47-10.67Q259.16-11.50 260.13-12.88L260.13-12.88L260.13-12.88Q261.10-14.26 262.52-18.22L262.52-18.22L262.52-18.22Q263.95-22.17 263.95-24.98L263.95-24.98L263.95-24.98Q263.95-27.78 263.72-29.30L263.72-29.30L263.72-29.30Q263.49-30.82 262.11-32.84L262.11-32.84L262.11-32.84Q260.73-34.87 258.98-35.19L258.98-35.19L258.98-35.19Q257.23-35.51 257.23-36.34L257.23-36.34L257.23-36.34Q257.23-37.81 261.14-39.74" fill="#b4b2ae" stroke="none" stroke-width="none" transform="translate(-182.759991645813,25.73755315992567)" style="fill: rgb(5, 105, 107);"></path></g><g class="path" style="opacity: 1; transform-origin: 107.64px 5.72755px; animation: 2.27273s linear -0.333333s infinite normal forwards running fade-3534dd99-4715-4b04-bf22-70ac0b70b21b;"><path d="M284.74-23.37L284.74-23.37L284.83-21.07L284.83-21.07Q284.83-20.52 285.57-20.52L285.57-20.52L285.57-20.52Q288.51-20.79 290.72-22.03L290.72-22.03L290.72-22.03Q292.93-23.28 294.03-24.84L294.03-24.84L294.03-24.84Q296.24-28.24 296.42-30.73L296.42-30.73L296.52-31.83L296.52-31.83Q296.52-36.80 292.56-36.80L292.56-36.80L292.56-36.80Q289.62-36.80 287.78-34.22L287.78-34.22L287.78-34.22Q284.74-30.18 284.74-23.37zM304.80-11.13L304.80-11.13L304.80-11.13Q304.80-7.64 303.37-5.01L303.37-5.01L303.37-5.01Q301.94-2.39 300.15-1.15L300.15-1.15L300.15-1.15Q298.36 0.09 295.96 0.83L295.96 0.83L295.96 0.83Q292.93 1.75 290.17 1.75L290.17 1.75L290.17 1.75Q282.44 1.75 278.76-4.05L278.76-4.05L278.76-4.05Q275.08-9.84 275.08-18.81L275.08-18.81L275.08-18.81Q275.08-27.78 279.63-34.78L279.63-34.78L279.63-34.78Q284.19-41.77 293.30-41.77L293.30-41.77L293.30-41.77Q301.58-41.77 304.52-35.97L304.52-35.97L304.52-35.97Q305.72-33.76 305.72-31.79L305.72-31.79L305.72-31.79Q305.72-29.81 305.53-28.66L305.53-28.66L305.53-28.66Q305.35-27.51 304.24-25.21L304.24-25.21L304.24-25.21Q303.14-22.91 301.30-21.07L301.30-21.07L301.30-21.07Q299.46-19.23 295.50-17.57L295.50-17.57L295.50-17.57Q291.55-15.92 286.21-15.36L286.21-15.36L286.21-15.36Q285.48-15.36 285.48-14.72L285.48-14.72L285.48-14.72Q285.48-13.89 286.07-12.28L286.07-12.28L286.07-12.28Q286.67-10.67 287.41-9.57L287.41-9.57L287.41-9.57Q289.43-6.99 293.39-6.99L293.39-6.99L293.39-6.99Q297.34-6.99 300.10-9.57L300.10-9.57L300.10-9.57Q301.58-10.95 302.50-12.97L302.50-12.97L302.50-12.97Q302.86-13.71 303.46-13.71L303.46-13.71L303.46-13.71Q304.06-13.71 304.43-12.70L304.43-12.70L304.43-12.70Q304.80-11.68 304.80-11.13" fill="#b4b2ae" stroke="none" stroke-width="none" transform="translate(-182.759991645813,25.73755315992567)" style="fill: rgb(180, 178, 174);"></path></g><g class="path" style="opacity: 1; transform-origin: 140.44px 5.54255px; animation: 2.27273s linear -0.166667s infinite normal forwards running fade-3534dd99-4715-4b04-bf22-70ac0b70b21b;"><path d="M337.46-31.65L337.00-24.66L337.36-21.44L337.36-21.44Q337.36-19.69 334.05-19.69L334.05-19.69L334.05-19.69Q327.34-19.69 327.34-24.75L327.34-24.75L327.34-24.75Q327.34-25.94 327.98-28.06L327.98-28.06L327.98-28.06Q328.62-30.18 328.62-31.74L328.62-31.74L328.62-31.74Q328.62-33.30 327.70-34.45L327.70-34.45L327.70-34.45Q326.78-35.60 325.04-35.60L325.04-35.60L325.04-35.60Q323.29-35.60 322.05-34.36L322.05-34.36L322.05-34.36Q320.80-33.12 320.53-31.83L320.53-31.83L320.16-30.54L320.16-30.54Q319.61-27.69 319.61-21.02L319.61-21.02L319.61-21.02Q319.61-14.35 319.79-10.53L319.79-10.53L319.79-10.53Q319.98-6.72 320.16-5.29L320.16-5.29L320.16-5.29Q320.34-3.86 320.34-3.59L320.34-3.59L320.34-3.59Q320.34-1.29 317.49 0.14L317.49 0.14L317.49 0.14Q314.64 1.56 311.79 1.56L311.79 1.56L311.79 1.56Q308.94 1.56 308.94 0.37L308.94 0.37L309.40-2.48L309.40-2.48Q310.68-10.49 310.68-23.37L310.68-23.37L310.68-23.37Q310.68-36.25 309.76-40.85L309.76-40.85L309.76-40.85Q309.76-41.95 311.70-41.95L311.70-41.95L311.70-41.95Q316.66-41.95 318.32-38.55L318.32-38.55L318.32-38.55Q318.41-38.18 318.64-38.18L318.64-38.18L318.64-38.18Q318.87-38.18 319.88-39.01L319.88-39.01L319.88-39.01Q322.92-41.49 327.06-41.49L327.06-41.49L327.06-41.49Q329.64-41.49 332.21-40.48L332.21-40.48L332.21-40.48Q337.46-38.36 337.46-31.65L337.46-31.65" fill="#b4b2ae" stroke="none" stroke-width="none" transform="translate(-182.759991645813,25.73755315992567)" style="fill: rgb(5, 105, 107);"></path></g><g class="path" style="opacity: 1; transform-origin: 170.245px 5.86255px; animation: 2.27273s linear 0s infinite normal forwards running fade-3534dd99-4715-4b04-bf22-70ac0b70b21b;"><path d="M367.91-12.60L367.91-12.60L367.91-12.60Q367.91-8.65 366.39-5.70L366.39-5.70L366.39-5.70Q364.87-2.76 362.94-1.38L362.94-1.38L362.94-1.38Q361.01 0 358.34 0.83L358.34 0.83L358.34 0.83Q354.84 1.93 351.99 1.93L351.99 1.93L351.99 1.93Q346.01 1.93 342.06-0.41L342.06-0.41L342.06-0.41Q338.10-2.76 338.10-7.91L338.10-7.91L338.10-7.91Q338.10-10.95 339.76-12.88L339.76-12.88L339.76-12.88Q342.33-15.73 345.92-15.73L345.92-15.73L345.92-15.73Q347.02-15.73 347.02-14.72L347.02-14.72L347.02-14.72Q347.02-14.63 346.61-13.29L346.61-13.29L346.61-13.29Q346.20-11.96 346.20-9.94L346.20-9.94L346.20-9.94Q346.20-7.91 347.81-6.35L347.81-6.35L347.81-6.35Q349.42-4.78 351.72-4.78L351.72-4.78L351.72-4.78Q354.02-4.78 355.40-5.57L355.40-5.57L355.40-5.57Q356.78-6.35 357.33-7.54L357.33-7.54L357.33-7.54Q358.16-9.20 358.16-10.67L358.16-10.67L358.16-10.67Q358.16-13.34 355.49-15.27L355.49-15.27L355.49-15.27Q352.82-17.20 349.60-18.31L349.60-18.31L349.60-18.31Q346.38-19.41 343.71-21.99L343.71-21.99L343.71-21.99Q341.04-24.56 341.04-28.43L341.04-28.43L341.04-28.43Q341.04-35.05 345.23-38.36L345.23-38.36L345.23-38.36Q349.42-41.68 356.59-41.68L356.59-41.68L356.59-41.68Q359.72-41.68 363.17-40.80L363.17-40.80L363.17-40.80Q366.62-39.93 366.62-37.86L366.62-37.86L366.62-37.86Q366.62-35.79 365.93-34.04L365.93-34.04L365.93-34.04Q365.24-32.29 364.23-32.29L364.23-32.29L364.23-32.29Q363.68-32.29 363.49-32.71L363.49-32.71L363.49-32.71Q363.31-33.12 362.85-33.67L362.85-33.67L362.85-33.67Q362.39-34.22 360.64-35.10L360.64-35.10L360.64-35.10Q358.89-35.97 357.65-35.97L357.65-35.97L357.65-35.97Q356.41-35.97 355.99-35.93L355.99-35.93L355.99-35.93Q355.58-35.88 354.57-35.65L354.57-35.65L354.57-35.65Q353.56-35.42 352.73-34.96L352.73-34.96L352.73-34.96Q350.61-33.76 350.61-31.46L350.61-31.46L350.61-31.46Q350.61-29.99 351.26-29.30L351.26-29.30L351.26-29.30Q351.90-28.61 352.27-28.24L352.27-28.24L352.27-28.24Q352.64-27.88 353.56-27.37L353.56-27.37L353.56-27.37Q354.48-26.86 354.84-26.68L354.84-26.68L354.84-26.68Q355.21-26.50 356.50-25.90L356.50-25.90L356.50-25.90Q357.79-25.30 358.16-25.12L358.16-25.12L358.16-25.12Q367.91-20.52 367.91-12.60" fill="#b4b2ae" stroke="none" stroke-width="none" transform="translate(-182.759991645813,25.73755315992567)" style="fill: rgb(180, 178, 174);"></path></g></g>
</g>
</g>
<style id="fade-3534dd99-4715-4b04-bf22-70ac0b70b21b" data-anikit="">@keyframes fade-3534dd99-4715-4b04-bf22-70ac0b70b21b
{
  0% {
    animation-timing-function: cubic-bezier(0.2057,0.573,0.3723,0.9184);
    opacity: 1;
  }
  100% {
    opacity: 0;
  }
}</style></svg>